<svg xmlns="http://www.w3.org/2000/svg" width="32" height="32" viewBox="0 0 32 32">
  <g id="Grupo_640" data-name="Grupo 640" transform="translate(-923 -532)">
    <rect id="Retângulo_293" data-name="Retângulo 293" width="32" height="32" transform="translate(923 532)" fill="rgba(255,255,255,0)"/>
    <g id="document" transform="translate(925.529 534.513)">
      <g id="Grupo_612" data-name="Grupo 612" transform="translate(0 2.073)">
        <g id="Grupo_602" data-name="Grupo 602" transform="translate(0.846 0.55)">
          <path id="Caminho_4627" data-name="Caminho 4627" d="M14.872,16.872h17.3V38.863h-17.3Z" transform="translate(-14.872 -16.872)" fill="#fff"/>
        </g>
        <g id="Grupo_603" data-name="Grupo 603" transform="translate(0.846 1.166)">
          <path id="Caminho_4628" data-name="Caminho 4628" d="M18.067,22.71l-.377-5.838H14.872V38.247h17.3v-2.44c-7.736-.848-13.668-6.358-14.1-13.1Z" transform="translate(-14.872 -16.872)" fill="#e6e7e8"/>
        </g>
        <g id="Grupo_610" data-name="Grupo 610" transform="translate(4.18 4.723)">
          <g id="Grupo_606" data-name="Grupo 606" transform="translate(0.019 0)">
            <path id="Caminho_4631" data-name="Caminho 4631" d="M218.3,153.8h10.6v1.691H218.3Z" transform="translate(-218.303 -153.8)" fill="#3e4d6c"/>
          </g>
          <g id="Grupo_607" data-name="Grupo 607" transform="translate(0.002 4.17)">
            <path id="Caminho_4632" data-name="Caminho 4632" d="M0,0H7.791V1.691H0Z" transform="translate(0.008 0) rotate(0.286)" fill="#3e4d6c"/>
          </g>
          <g id="Grupo_608" data-name="Grupo 608" transform="translate(0.001 8.19)">
            <path id="Caminho_4633" data-name="Caminho 4633" d="M0,0H7.791V1.691H0Z" transform="translate(0.008 0) rotate(0.286)" fill="#3e4d6c"/>
          </g>
          <g id="Grupo_609" data-name="Grupo 609" transform="translate(0 12.211)">
            <path id="Caminho_4634" data-name="Caminho 4634" d="M0,0H7.791V1.691H0Z" transform="translate(0.008 0) rotate(0.286)" fill="#3e4d6c"/>
          </g>
        </g>
        <g id="Grupo_611" data-name="Grupo 611" transform="translate(0)">
          <path id="Caminho_4635" data-name="Caminho 4635" d="M18.144,28.387H.846A.846.846,0,0,1,0,27.542V5.846A.846.846,0,0,1,.846,5h17.3a.846.846,0,0,1,.846.846V10.3H17.3V6.691H1.691v20H17.3V24.19H18.99v3.352a.846.846,0,0,1-.846.846Z" transform="translate(0 -5)" fill="#3e4d6c"/>
        </g>
      </g>
      <g id="Grupo_617" data-name="Grupo 617" transform="translate(13.773 4.68)">
        <g id="Grupo_613" data-name="Grupo 613" transform="translate(0.848 3.618)">
          <path id="Caminho_4636" data-name="Caminho 4636" d="M257.7,172.092l-.566,4.387,3.872-2.139,5.392-7.93-3.3-2.249Z" transform="translate(-257.137 -164.161)" fill="#fff"/>
        </g>
        <g id="Grupo_614" data-name="Grupo 614" transform="translate(7.127 7.32)">
          <path id="Caminho_4637" data-name="Caminho 4637" d="M0,0H1.691V1.733H0Z" transform="matrix(0.827, 0.562, -0.562, 0.827, 0.974, 0)" fill="#3e4d6c"/>
        </g>
        <g id="Grupo_615" data-name="Grupo 615" transform="translate(0 3.143)">
          <path id="Caminho_4638" data-name="Caminho 4638" d="M242.238,168.485l.566-4.387a.846.846,0,0,1,.139-.367l5.393-7.931,1.4.951-5.279,7.764-.326,2.531,2.234-1.234,2.187-3.217,1.4.951-2.3,3.384a.845.845,0,0,1-.29.265l-3.872,2.139A.844.844,0,0,1,242.238,168.485Z" transform="translate(-242.23 -155.799)" fill="#3e4d6c"/>
        </g>
        <g id="Grupo_616" data-name="Grupo 616" transform="translate(5.619)">
          <path id="Caminho_4639" data-name="Caminho 4639" d="M347.781,102.67l-2.866-1.948a1.131,1.131,0,0,0-1.571.3l-2.286,3.323,4.735,3.222,2.287-3.325A1.131,1.131,0,0,0,347.781,102.67Z" transform="translate(-341.059 -100.526)" fill="#00b2e2"/>
        </g>
      </g>
    </g>
  </g>
</svg>
