<svg xmlns="http://www.w3.org/2000/svg" width="32" height="32" viewBox="0 0 32 32">
  <g id="Grupo_641" data-name="Grupo 641" transform="translate(-706 -534)">
    <rect id="Retângulo_292" data-name="Retângulo 292" width="32" height="32" transform="translate(706 534)" fill="rgba(255,255,255,0)"/>
    <g id="aim" transform="translate(708.523 534)">
      <g id="Grupo_582" data-name="Grupo 582" transform="translate(0 5.825)">
        <g id="Grupo_580" data-name="Grupo 580">
          <path id="Caminho_4610" data-name="Caminho 4610" d="M35.567,113.261a10.87,10.87,0,1,1-4.3-4.235" transform="translate(-14.269 -106.757)" fill="#fff"/>
          <path id="Caminho_4611" data-name="Caminho 4611" d="M11.826,116.14a11.826,11.826,0,1,1,5.627-22.225L16.538,95.6a9.914,9.914,0,1,0,3.925,3.863l1.671-.942A11.823,11.823,0,0,1,11.826,116.14Z" transform="translate(0 -92.488)" fill="#3e4d6c"/>
        </g>
        <g id="Grupo_581" data-name="Grupo 581" transform="translate(5.258 5.258)">
          <path id="Caminho_4612" data-name="Caminho 4612" d="M109.675,195.144a5.6,5.6,0,1,1-3.7-3.7" transform="translate(-97.749 -190.238)" fill="#fff"/>
          <path id="Caminho_4613" data-name="Caminho 4613" d="M90.05,189.105A6.568,6.568,0,1,1,92,176.263l-.568,1.832a4.644,4.644,0,1,0,3.064,3.064l1.832-.568a6.572,6.572,0,0,1-6.274,8.514Z" transform="translate(-83.482 -175.97)" fill="#3e4d6c"/>
        </g>
      </g>
      <g id="Grupo_586" data-name="Grupo 586" transform="translate(10.164 0)">
        <g id="Grupo_583" data-name="Grupo 583" transform="translate(0.984 4.391)">
          <path id="Caminho_4614" data-name="Caminho 4614" d="M0,0H1.918V17.79H0Z" transform="translate(12.578) rotate(45)" fill="#3e4d6c"/>
        </g>
        <g id="Grupo_584" data-name="Grupo 584" transform="translate(0 15.989)">
          <path id="Caminho_4615" data-name="Caminho 4615" d="M163.031,257.181a1.662,1.662,0,1,1,1.662-1.662A1.664,1.664,0,0,1,163.031,257.181Z" transform="translate(-161.369 -253.857)" fill="#00b2e2"/>
        </g>
        <g id="Grupo_585" data-name="Grupo 585" transform="translate(11.003 0)">
          <path id="Caminho_4616" data-name="Caminho 4616" d="M340.272,8.31l-3.665-.565-.54-3.64,4.1-4.1.553,3.653,3.653.553Z" transform="translate(-336.067 0)" fill="#00b2e2"/>
        </g>
      </g>
    </g>
  </g>
</svg>
