<?xml version="1.0" standalone="no"?>
<!DOCTYPE svg PUBLIC "-//W3C//DTD SVG 20010904//EN" "http://www.w3.org/TR/2001/REC-SVG-20010904/DTD/svg10.dtd">
<svg version="1.0" xmlns="http://www.w3.org/2000/svg" width="2100.000000pt" height="2100.000000pt"
  viewBox="0 0 2100.000000 2100.000000" preserveAspectRatio="xMidYMid meet">
  <metadata>
    Created by potrace 1.14, written by Peter Selinger 2001-2017
  </metadata>
  <g transform="translate(0.000000,2100.000000) scale(0.100000,-0.100000)" fill="#000000" stroke="none">
    <path d="M6338 17515 c-2 -1 -57 -6 -123 -10 -159 -9 -191 -12 -360 -30 -73
-8 -276 -34 -305 -40 -21 -3 -160 -27 -240 -40 -56 -10 -222 -46 -345 -75 -71
-17 -141 -33 -155 -36 -14 -3 -45 -11 -70 -19 -25 -7 -79 -23 -120 -35 -219
-62 -545 -177 -755 -265 -238 -100 -690 -324 -795 -393 -24 -16 -41 -26 -100
-59 -185 -102 -692 -466 -846 -608 -6 -5 -37 -32 -69 -60 -167 -143 -416 -391
-577 -575 -218 -250 -391 -485 -607 -825 -143 -225 -347 -638 -461 -935 -88
-229 -188 -545 -225 -710 -2 -8 -10 -44 -19 -80 -8 -36 -17 -76 -20 -90 -2
-14 -7 -32 -10 -40 -3 -8 -7 -28 -10 -45 -3 -16 -7 -43 -10 -60 -4 -16 -8 -43
-11 -60 -3 -16 -7 -40 -9 -51 -5 -23 -13 -73 -22 -131 -3 -21 -7 -49 -9 -63
-4 -23 -19 -148 -30 -245 -36 -313 -41 -996 -10 -1335 2 -25 6 -81 9 -125 4
-44 8 -91 10 -105 2 -14 7 -56 11 -95 8 -81 14 -132 20 -160 2 -11 7 -42 10
-70 4 -27 8 -61 11 -75 3 -14 7 -38 9 -55 3 -16 7 -41 10 -55 3 -14 10 -52 15
-85 5 -33 12 -69 14 -80 3 -11 11 -51 20 -90 72 -336 213 -805 301 -1000 7
-16 23 -54 35 -84 52 -133 225 -487 301 -614 19 -32 44 -74 56 -95 12 -20 29
-49 37 -63 39 -68 188 -286 276 -404 301 -402 666 -774 1073 -1097 56 -44 111
-87 122 -96 33 -27 254 -185 335 -239 105 -70 343 -200 555 -304 416 -202 784
-332 1220 -428 77 -17 327 -62 555 -101 228 -38 426 -72 440 -74 14 -3 36 -8
50 -11 14 -3 36 -7 49 -10 163 -31 387 -120 556 -222 111 -68 322 -222 391
-288 130 -122 353 -293 529 -404 55 -35 112 -72 127 -82 15 -10 29 -19 32 -19
3 0 29 -14 58 -31 315 -187 760 -345 1163 -414 17 -2 40 -7 52 -9 12 -3 46 -7
75 -10 29 -4 69 -8 88 -11 212 -28 643 -28 901 0 44 5 194 24 229 30 14 3 42
7 64 10 21 4 48 9 60 11 11 2 32 6 46 9 14 3 34 7 45 9 11 2 54 12 95 20 68
15 133 31 315 80 108 29 409 131 490 166 11 5 64 27 119 50 488 204 926 491
1271 835 140 140 208 217 343 390 72 93 206 300 277 430 44 81 145 282 145
289 0 3 11 29 24 58 21 47 44 106 106 273 37 100 108 344 135 465 29 131 58
283 79 420 3 19 8 46 11 60 3 14 7 35 9 48 26 126 101 324 163 425 74 122 186
214 284 233 196 38 484 -74 796 -309 97 -74 291 -204 368 -248 318 -180 554
-283 870 -377 66 -20 182 -50 215 -57 8 -2 60 -12 115 -24 55 -11 118 -23 140
-25 22 -3 73 -10 114 -16 213 -30 733 -33 868 -6 12 3 46 7 75 10 29 4 64 8
78 11 14 2 54 9 90 15 162 27 521 125 625 170 11 4 50 20 88 34 250 96 616
295 825 449 219 162 350 274 527 451 186 187 265 278 407 467 367 490 627
1034 793 1659 22 83 67 300 84 400 27 167 29 185 37 255 3 33 8 71 10 85 11
73 19 295 19 530 -1 273 -6 365 -31 568 -11 92 -15 118 -25 182 -15 95 -18
113 -34 190 -8 38 -17 84 -20 102 -10 55 -73 297 -106 403 -42 133 -116 334
-174 470 -82 192 -275 564 -321 616 -8 8 -14 19 -14 22 0 14 -170 259 -265
382 -61 78 -79 100 -179 214 -163 187 -425 428 -631 582 -498 372 -1034 606
-1635 715 -14 2 -36 7 -50 9 -14 3 -45 8 -70 10 -25 3 -58 7 -75 10 -182 26
-765 27 -900 1 -12 -2 -48 -7 -80 -11 -33 -4 -69 -9 -80 -11 -29 -6 -87 -16
-110 -20 -20 -4 -101 -20 -140 -29 -27 -6 -201 -51 -250 -65 -22 -6 -98 -32
-170 -57 -478 -168 -936 -441 -1380 -822 -94 -81 -135 -119 -296 -273 -82 -78
-149 -138 -155 -138 -3 0 -15 -9 -27 -21 -37 -35 -186 -130 -275 -176 -244
-127 -503 -160 -713 -92 -156 51 -320 155 -459 291 -93 91 -118 120 -284 328
-84 105 -328 400 -361 436 -5 6 -37 42 -70 79 -181 205 -251 280 -465 495
-129 129 -255 253 -280 275 -25 22 -83 74 -130 116 -68 61 -299 253 -345 287
-5 4 -53 39 -105 78 -598 447 -1244 750 -1960 919 -144 35 -353 74 -530 100
-14 2 -43 6 -65 9 -100 15 -244 30 -410 41 -49 4 -103 9 -120 11 -34 5 -862
14 -867 9z" />
  </g>
</svg>
